# xmcd
# 
# Track frame offsets:
#     150
#     12702
#     31780
#     49070
#     72715
#     90562
#     107750
#     133420
#     146885
#     169125
#     189450
#     211197
#     235822
#     251165
#     267707
# 
# Disc length: 3957
# 
# Revision: 4
# Processed by: cddbd v1.5.2PL0 Copyright (c) Steve Scherf et al.
# Submitted via: fre:ac v1.0.17
# 
DISCID=ea0f730f
DTITLE=Various Artist - Blues Roll On!
DYEAR=1999
DGENRE=Blues
TTITLE0=Mojo Blues Band - Let It Rain
TTITLE1=Mojo Blues Band - Chicago Is Callin'
TTITLE2=Mojo Blues Band - Masada
TTITLE3=Mojo Blues Band - I'm Not That Easy
TTITLE4=Mojo Blues Band and Jimmy Anderson - It's Half Past Midnight
TTITLE5=Mojo Blues Band and Jimmy Anderson - Frankie And Johnny
TTITLE6=Mojo Blues Band and Jimmy Anderson - Promised Land
TTITLE7=Mojo Blues Band and Jimmy Anderson - I Feel Like Dancing
TTITLE8=Mojo Blues Band and Jimmy Anderson - Nothing In This World
TTITLE9=Mojo Blues Band and Little Mac Simmons - Inflation Blues
TTITLE10=Mojo Blues Band and Taildragger - Highway 57
TTITLE11=Mojo Blues Band and Golden Big Wheeler - Johnny Walker And Jack Daniel's
TTITLE12=Mojo Blues Band and Golden Big Wheeler - Restless Man
TTITLE13=Mojo Blues Band and A. C. Reed - I Stay Mad
TTITLE14=Mojo Blues Band and Taildragger,M.Elem,L.McSimmons,S.Bell - Georges' West Side Jive
EXTD=YEAR: 1999
EXTT0=
EXTT1=
EXTT2=
EXTT3=
EXTT4=
EXTT5=
EXTT6=
EXTT7=
EXTT8=
EXTT9=
EXTT10=
EXTT11=
EXTT12=
EXTT13=
EXTT14=
PLAYORDER=
